<?xml version="1.0" encoding="UTF-8"?>
<svg width="100pt" height="100pt" version="1.1" viewBox="0 0 100 100" xmlns="http://www.w3.org/2000/svg">
 <path d="m77.082 33.332v-6.25c0-4.168-4.375-8.332-27.082-8.332s-27.082 4.168-27.082 8.332v6.25c-2.293 0-4.168 1.875-4.168 4.168v4.168c0 2.293 1.875 4.168 4.168 4.168v22.918c0 2.293 1.25 4.375 3.125 5.418v3.957c0 2.918 2.293 5.207 5.207 5.207 2.918 0 5.207-2.293 5.207-5.207v-3.1289h27.082v3.125c0 2.918 2.293 5.207 5.207 5.207 2.918 0 5.207-2.293 5.207-5.207v-3.957c1.875-1.043 3.125-3.125 3.125-5.418l0.003906-22.918c2.293 0 4.168-1.875 4.168-4.168v-4.168c0-2.2891-1.875-4.1641-4.168-4.1641zm-41.664-8.332h29.168c1.25 0 2.082 0.83203 2.082 2.082s-0.83203 2.082-2.082 2.082l-29.168 0.003907c-1.25 0-2.082-0.83203-2.082-2.082-0.003907-1.2539 0.83203-2.0859 2.082-2.0859zm-4.168 45.832c-2.293 0-4.168-1.875-4.168-4.168 0-2.293 1.875-4.168 4.168-4.168s4.168 1.875 4.168 4.168c0 2.293-1.875 4.168-4.168 4.168zm37.5 0c-2.293 0-4.168-1.875-4.168-4.168 0-2.293 1.875-4.168 4.168-4.168s4.168 1.875 4.168 4.168c0 2.293-1.875 4.168-4.168 4.168zm4.168-20.832c0 3.332-2.707 6.25-6.25 6.25h-33.336c-3.543 0-6.25-2.918-6.25-6.25v-10.418c0-3.543 2.707-6.25 6.25-6.25h33.332c3.543 0 6.25 2.707 6.25 6.25z"/>
</svg>
