<?xml version="1.0" encoding="UTF-8"?>
<svg width="100pt" height="100pt" version="1.1" viewBox="0 0 100 100" xmlns="http://www.w3.org/2000/svg">
 <g>
  <path d="m56.25 56.25c0 3.4531-2.7969 6.25-6.25 6.25s-6.25-2.7969-6.25-6.25 2.7969-6.25 6.25-6.25 6.25 2.7969 6.25 6.25"/>
  <path d="m81.25 33.332h-16.668l-4.168-8.332h-20.832l-4.168 8.332h-16.664c-3.543 0-6.25 2.707-6.25 6.25v33.332c0 3.332 2.707 6.25 6.25 6.25h62.5c3.543 0 6.25-2.918 6.25-6.25v-33.332c0-3.5391-2.707-6.25-6.25-6.25zm-31.25 37.5c-8.125 0-14.582-6.457-14.582-14.582s6.457-14.582 14.582-14.582 14.582 6.457 14.582 14.582-6.457 14.582-14.582 14.582z"/>
 </g>
</svg>
