<svg id="Layer_1" data-name="Layer 1" xmlns="http://www.w3.org/2000/svg" viewBox="0 0 100 54.48"><defs><style>.cls-1{fill:#010101;}</style></defs><title>Artboard 1</title><path class="cls-1" d="M91.31,22.58a12.17,12.17,0,1,0-20.39,0,10.49,10.49,0,0,0-3.51,1.32,9.73,9.73,0,0,0-6.9-4.5,12.5,12.5,0,1,0-20.83,0,9.77,9.77,0,0,0-6.91,4.5,9.62,9.62,0,0,0-3.5-1.32,12.18,12.18,0,1,0-20.39,0,9.66,9.66,0,0,0-8.12,10l.66,10.19A6.21,6.21,0,0,0,7,48.45c4,.33,8.11.55,12.17.55s8.11-.22,12.17-.55c.22,0,.44-.11.66-.11a6.09,6.09,0,0,0,5.59,5.59c4.16.33,8.33.55,12.6.55s8.44-.22,12.61-.55a6.1,6.1,0,0,0,5.59-5.59c.22,0,.44.11.66.11,3.94.33,8.11.55,12.16.55s8.11-.22,12.17-.55A6.21,6.21,0,0,0,99,42.75l.66-10.19A9.87,9.87,0,0,0,91.31,22.58ZM19.07,6.69A9.32,9.32,0,1,1,9.75,16,9.31,9.31,0,0,1,19.07,6.69Zm12,38.8c-3.84.33-7.78.55-11.95.55s-8-.22-11.84-.55a3.18,3.18,0,0,1-3-3L3.61,32.34a6.72,6.72,0,0,1,6.25-7l1.32-.11a11.61,11.61,0,0,0,3.62,2.08,10.92,10.92,0,0,0,4.27.77,12.07,12.07,0,0,0,7.78-2.85h0l1.32.11a6.55,6.55,0,0,1,3.29,1.1,7.65,7.65,0,0,0-.33,3.18l.55,15.78C31.46,45.38,31.24,45.49,31,45.49ZM50.09,2.85a9.65,9.65,0,1,1-9.64,9.65A9.6,9.6,0,0,1,50.09,2.85Zm16,26.64L65.44,47.9A3.3,3.3,0,0,1,62.37,51c-3.95.33-8.11.55-12.39.55S41.65,51.3,37.6,51a3.29,3.29,0,0,1-3.07-3.07l-.66-18.41a7,7,0,0,1,6.47-7.35L41.87,22a12.65,12.65,0,0,0,16,0l1.54.11A6.93,6.93,0,0,1,66.1,29.49Zm15-22.8A9.32,9.32,0,1,1,71.8,16,9.3,9.3,0,0,1,81.11,6.69ZM96.57,32.34l-.66,10.19a3.17,3.17,0,0,1-3,3c-3.83.33-7.78.55-12,.55s-8-.22-11.94-.55a2,2,0,0,1-.77-.22l.55-15.78a10.06,10.06,0,0,0-.33-3.18,5.87,5.87,0,0,1,3.29-1.1l1.31-.11a12.06,12.06,0,0,0,15.57,0h0l1.31.11A6.91,6.91,0,0,1,96.57,32.34Z"/></svg>